<svg xmlns="http://www.w3.org/2000/svg" viewBox="0 0 1969.0000000000002 950.65" width="1969.0000000000002" height="950.65"><g transform="translate(44.19999999999996, 192.25000000000006)"><rect x="0" y="0" width="380" height="122" style="fill:#fefdfe"></rect><rect x="0" y="0" width="380" height="25" style="fill:#e6eaf2"></rect><text x="10" y="14" style="font-family:&#x27;Arial&#x27;, sans-serif;font-size:14px;fill:#202020">new-users</text><g transform="translate(0, 15)"><g transform="translate(10, 25)"><g transform="translate(0, 0)"><clipPath id="clip_c2f2efad-6b16-4c6a-8398-a27e3a6fe79c"><rect x="21" y="0" width="191" height="17"></rect></clipPath><text x="21" y="14" style="fill:#202020;font-family:Arial;font-size:14px" clip-path="url(#clip_c2f2efad-6b16-4c6a-8398-a27e3a6fe79c)">_id</text></g><text x="233" y="14" style="fill:#202020;font-family:Arial;font-size:14px" width="80">objectId</text><text x="334" y="14" width="22" height="14" style="fill:#202020;font-family:Arial;font-size:14px">NN</text></g><g transform="translate(10, 49)"><g transform="translate(0, 0)"><clipPath id="clip_bc48c175-f579-40ec-94c6-2df27544f4a4"><rect x="21" y="0" width="191" height="17"></rect></clipPath><text x="21" y="14" style="fill:#202020;font-family:Arial;font-size:14px" clip-path="url(#clip_bc48c175-f579-40ec-94c6-2df27544f4a4)">user_id</text></g><text x="233" y="14" style="fill:#202020;font-family:Arial;font-size:14px" width="80">objectId</text><text x="334" y="14" width="22" height="14" style="fill:#202020;font-family:Arial;font-size:14px"></text></g><g transform="translate(10, 73)"><g transform="translate(0, 0)"><clipPath id="clip_e8142d96-38d3-4d6a-afac-e760c6e697f7"><rect x="21" y="0" width="191" height="17"></rect></clipPath><text x="21" y="14" style="fill:#202020;font-family:Arial;font-size:14px" clip-path="url(#clip_e8142d96-38d3-4d6a-afac-e760c6e697f7)">uuid</text></g><text x="233" y="14" style="fill:#202020;font-family:Arial;font-size:14px" width="80">string</text><text x="334" y="14" width="22" height="14" style="fill:#202020;font-family:Arial;font-size:14px"></text></g></g><rect x="0" y="0" width="380" height="122" style="fill:none;stroke:#e6eaf2"></rect></g><g transform="translate(988.1500000000001, 529.3000000000002)"><rect x="0" y="0" width="380" height="314" style="fill:#fefdfe"></rect><rect x="0" y="0" width="380" height="25" style="fill:#e6eaf2"></rect><text x="10" y="14" style="font-family:&#x27;Arial&#x27;, sans-serif;font-size:14px;fill:#202020">plates</text><g transform="translate(0, 15)"><g transform="translate(10, 25)"><g transform="translate(0, 0)"><clipPath id="clip_536e5ce3-e377-45e7-9a3a-981e899aadd9"><rect x="21" y="0" width="191" height="17"></rect></clipPath><text x="21" y="14" style="fill:#202020;font-family:Arial;font-size:14px" clip-path="url(#clip_536e5ce3-e377-45e7-9a3a-981e899aadd9)">_id</text></g><text x="233" y="14" style="fill:#202020;font-family:Arial;font-size:14px" width="80">objectId</text><text x="334" y="14" width="22" height="14" style="fill:#202020;font-family:Arial;font-size:14px">NN</text></g><g transform="translate(10, 49)"><g transform="translate(0, 0)"><clipPath id="clip_bcada8d2-de02-4165-ba5d-cd7ee95181c1"><rect x="21" y="0" width="191" height="17"></rect></clipPath><text x="21" y="14" style="fill:#202020;font-family:Arial;font-size:14px" clip-path="url(#clip_bcada8d2-de02-4165-ba5d-cd7ee95181c1)">plate-number</text></g><text x="233" y="14" style="fill:#202020;font-family:Arial;font-size:14px" width="80">string</text><text x="334" y="14" width="22" height="14" style="fill:#202020;font-family:Arial;font-size:14px"></text></g><g transform="translate(10, 73)"><g transform="translate(0, 0)"><text x="0" y="14" style="fill:#202020;font-family:&#x27;Arial&#x27;, sans-serif;font-size:14px">▼</text><clipPath id="clip_0ee46ace-ab0c-4143-991d-dbd8887092e5"><rect x="21" y="0" width="191" height="17"></rect></clipPath><text x="21" y="14" style="fill:#202020;font-family:Arial;font-size:14px" clip-path="url(#clip_0ee46ace-ab0c-4143-991d-dbd8887092e5)">modifications</text></g><text x="233" y="14" style="fill:#202020;font-family:Arial;font-size:14px" width="80">object[]</text><text x="334" y="14" width="22" height="14" style="fill:#202020;font-family:Arial;font-size:14px"></text></g><g transform="translate(10, 97)"><g transform="translate(20, 0)"><clipPath id="clip_88f52309-dcf1-4b37-bc43-8d5eb7848b21"><rect x="21" y="0" width="171" height="17"></rect></clipPath><text x="21" y="14" style="fill:#202020;font-family:Arial;font-size:14px" clip-path="url(#clip_88f52309-dcf1-4b37-bc43-8d5eb7848b21)">date</text></g><text x="233" y="14" style="fill:#202020;font-family:Arial;font-size:14px" width="80">date</text><text x="334" y="14" width="22" height="14" style="fill:#202020;font-family:Arial;font-size:14px"></text></g><g transform="translate(10, 121)"><g transform="translate(20, 0)"><clipPath id="clip_e54ea0dd-88f7-4763-aeba-8bab7765f77c"><rect x="21" y="0" width="171" height="17"></rect></clipPath><text x="21" y="14" style="fill:#202020;font-family:Arial;font-size:14px" clip-path="url(#clip_e54ea0dd-88f7-4763-aeba-8bab7765f77c)">user</text></g><text x="233" y="14" style="fill:#202020;font-family:Arial;font-size:14px" width="80">objectId</text><text x="334" y="14" width="22" height="14" style="fill:#202020;font-family:Arial;font-size:14px"></text></g><g transform="translate(10, 145)"><g transform="translate(20, 0)"><clipPath id="clip_e40d5428-cc72-4f1b-a14d-e84fa8371de0"><rect x="21" y="0" width="171" height="17"></rect></clipPath><text x="21" y="14" style="fill:#202020;font-family:Arial;font-size:14px" clip-path="url(#clip_e40d5428-cc72-4f1b-a14d-e84fa8371de0)">samples</text></g><text x="233" y="14" style="fill:#202020;font-family:Arial;font-size:14px" width="80">int[]</text><text x="334" y="14" width="22" height="14" style="fill:#202020;font-family:Arial;font-size:14px"></text></g><g transform="translate(10, 169)"><g transform="translate(0, 0)"><text x="0" y="14" style="fill:#202020;font-family:&#x27;Arial&#x27;, sans-serif;font-size:14px">▼</text><clipPath id="clip_ac9a0b0a-f54c-4580-b0de-e65a25bc0adf"><rect x="21" y="0" width="191" height="17"></rect></clipPath><text x="21" y="14" style="fill:#202020;font-family:Arial;font-size:14px" clip-path="url(#clip_ac9a0b0a-f54c-4580-b0de-e65a25bc0adf)">locations</text></g><text x="233" y="14" style="fill:#202020;font-family:Arial;font-size:14px" width="80">object[]</text><text x="334" y="14" width="22" height="14" style="fill:#202020;font-family:Arial;font-size:14px"></text></g><g transform="translate(10, 193)"><g transform="translate(20, 0)"><clipPath id="clip_20470035-e352-4454-836a-ebfb5e3c071e"><rect x="21" y="0" width="171" height="17"></rect></clipPath><text x="21" y="14" style="fill:#202020;font-family:Arial;font-size:14px" clip-path="url(#clip_20470035-e352-4454-836a-ebfb5e3c071e)">date</text></g><text x="233" y="14" style="fill:#202020;font-family:Arial;font-size:14px" width="80">date</text><text x="334" y="14" width="22" height="14" style="fill:#202020;font-family:Arial;font-size:14px"></text></g><g transform="translate(10, 217)"><g transform="translate(20, 0)"><clipPath id="clip_01737abd-390e-4afc-8a36-7bc921cca74b"><rect x="21" y="0" width="171" height="17"></rect></clipPath><text x="21" y="14" style="fill:#202020;font-family:Arial;font-size:14px" clip-path="url(#clip_01737abd-390e-4afc-8a36-7bc921cca74b)">user</text></g><text x="233" y="14" style="fill:#202020;font-family:Arial;font-size:14px" width="80">objectId</text><text x="334" y="14" width="22" height="14" style="fill:#202020;font-family:Arial;font-size:14px"></text></g><g transform="translate(10, 241)"><g transform="translate(20, 0)"><clipPath id="clip_39a6be8c-eca9-41bf-bbb4-cee74dc8285d"><rect x="21" y="0" width="171" height="17"></rect></clipPath><text x="21" y="14" style="fill:#202020;font-family:Arial;font-size:14px" clip-path="url(#clip_39a6be8c-eca9-41bf-bbb4-cee74dc8285d)">location</text></g><text x="233" y="14" style="fill:#202020;font-family:Arial;font-size:14px" width="80">objectId</text><text x="334" y="14" width="22" height="14" style="fill:#202020;font-family:Arial;font-size:14px"></text></g><g transform="translate(10, 265)"><g transform="translate(0, 0)"><clipPath id="clip_b4a39ba6-6bab-4f94-9767-f44b57d64d70"><rect x="21" y="0" width="191" height="17"></rect></clipPath><text x="21" y="14" style="fill:#202020;font-family:Arial;font-size:14px" clip-path="url(#clip_b4a39ba6-6bab-4f94-9767-f44b57d64d70)">images</text></g><text x="233" y="14" style="fill:#202020;font-family:Arial;font-size:14px" width="80">objectId[]</text><text x="334" y="14" width="22" height="14" style="fill:#202020;font-family:Arial;font-size:14px"></text></g></g><rect x="0" y="0" width="380" height="314" style="fill:none;stroke:#e6eaf2"></rect></g><g transform="translate(990.2499999999998, 38.94999999999996)"><rect x="0" y="0" width="380" height="434" style="fill:#fefdfe"></rect><rect x="0" y="0" width="380" height="25" style="fill:#e6eaf2"></rect><text x="10" y="14" style="font-family:&#x27;Arial&#x27;, sans-serif;font-size:14px;fill:#202020">samples</text><g transform="translate(0, 15)"><g transform="translate(10, 25)"><g transform="translate(0, 0)"><clipPath id="clip_e6e94b86-e506-49ad-8e90-54faaed275d8"><rect x="21" y="0" width="191" height="17"></rect></clipPath><text x="21" y="14" style="fill:#202020;font-family:Arial;font-size:14px" clip-path="url(#clip_e6e94b86-e506-49ad-8e90-54faaed275d8)">_id</text></g><text x="233" y="14" style="fill:#202020;font-family:Arial;font-size:14px" width="80">objectId</text><text x="334" y="14" width="22" height="14" style="fill:#202020;font-family:Arial;font-size:14px">NN</text></g><g transform="translate(10, 49)"><g transform="translate(0, 0)"><clipPath id="clip_51670f3a-d9e0-40bb-8b31-09420bff0145"><rect x="21" y="0" width="191" height="17"></rect></clipPath><text x="21" y="14" style="fill:#202020;font-family:Arial;font-size:14px" clip-path="url(#clip_51670f3a-d9e0-40bb-8b31-09420bff0145)">sample-number</text></g><text x="233" y="14" style="fill:#202020;font-family:Arial;font-size:14px" width="80">int</text><text x="334" y="14" width="22" height="14" style="fill:#202020;font-family:Arial;font-size:14px"></text></g><g transform="translate(10, 73)"><g transform="translate(0, 0)"><clipPath id="clip_92abfe43-e3c5-4ff3-b535-09ffe0985ce7"><rect x="21" y="0" width="191" height="17"></rect></clipPath><text x="21" y="14" style="fill:#202020;font-family:Arial;font-size:14px" clip-path="url(#clip_92abfe43-e3c5-4ff3-b535-09ffe0985ce7)">owner</text></g><text x="233" y="14" style="fill:#202020;font-family:Arial;font-size:14px" width="80">objectId</text><text x="334" y="14" width="22" height="14" style="fill:#202020;font-family:Arial;font-size:14px"></text></g><g transform="translate(10, 97)"><g transform="translate(0, 0)"><text x="0" y="14" style="fill:#202020;font-family:&#x27;Arial&#x27;, sans-serif;font-size:14px">▼</text><clipPath id="clip_cc1d4c76-cd7d-410e-8f87-bd6b26114891"><rect x="21" y="0" width="191" height="17"></rect></clipPath><text x="21" y="14" style="fill:#202020;font-family:Arial;font-size:14px" clip-path="url(#clip_cc1d4c76-cd7d-410e-8f87-bd6b26114891)">information</text></g><text x="233" y="14" style="fill:#202020;font-family:Arial;font-size:14px" width="80">object</text><text x="334" y="14" width="22" height="14" style="fill:#202020;font-family:Arial;font-size:14px"></text></g><g transform="translate(10, 121)"><g transform="translate(20, 0)"><clipPath id="clip_2e74c79d-7b90-42c3-951f-0d5ec095459b"><rect x="21" y="0" width="171" height="17"></rect></clipPath><text x="21" y="14" style="fill:#202020;font-family:Arial;font-size:14px" clip-path="url(#clip_2e74c79d-7b90-42c3-951f-0d5ec095459b)">material</text></g><text x="233" y="14" style="fill:#202020;font-family:Arial;font-size:14px" width="80">string</text><text x="334" y="14" width="22" height="14" style="fill:#202020;font-family:Arial;font-size:14px"></text></g><g transform="translate(10, 145)"><g transform="translate(20, 0)"><clipPath id="clip_7c98c23f-472d-4bc3-9959-171a20d2d785"><rect x="21" y="0" width="171" height="17"></rect></clipPath><text x="21" y="14" style="fill:#202020;font-family:Arial;font-size:14px" clip-path="url(#clip_7c98c23f-472d-4bc3-9959-171a20d2d785)">orientation</text></g><text x="233" y="14" style="fill:#202020;font-family:Arial;font-size:14px" width="80">string</text><text x="334" y="14" width="22" height="14" style="fill:#202020;font-family:Arial;font-size:14px"></text></g><g transform="translate(10, 169)"><g transform="translate(20, 0)"><clipPath id="clip_4bc7b3f3-00ea-4377-b9b0-1a9ce7c8527e"><rect x="21" y="0" width="171" height="17"></rect></clipPath><text x="21" y="14" style="fill:#202020;font-family:Arial;font-size:14px" clip-path="url(#clip_4bc7b3f3-00ea-4377-b9b0-1a9ce7c8527e)">doping</text></g><text x="233" y="14" style="fill:#202020;font-family:Arial;font-size:14px" width="80">string</text><text x="334" y="14" width="22" height="14" style="fill:#202020;font-family:Arial;font-size:14px"></text></g><g transform="translate(10, 193)"><g transform="translate(20, 0)"><clipPath id="clip_c66a24d3-9464-4948-b2a2-759bc3b37403"><rect x="21" y="0" width="171" height="17"></rect></clipPath><text x="21" y="14" style="fill:#202020;font-family:Arial;font-size:14px" clip-path="url(#clip_c66a24d3-9464-4948-b2a2-759bc3b37403)">growth</text></g><text x="233" y="14" style="fill:#202020;font-family:Arial;font-size:14px" width="80">string</text><text x="334" y="14" width="22" height="14" style="fill:#202020;font-family:Arial;font-size:14px"></text></g><g transform="translate(10, 217)"><g transform="translate(20, 0)"><clipPath id="clip_afa72460-0e19-43db-b05a-60a9c11c2fed"><rect x="21" y="0" width="171" height="17"></rect></clipPath><text x="21" y="14" style="fill:#202020;font-family:Arial;font-size:14px" clip-path="url(#clip_afa72460-0e19-43db-b05a-60a9c11c2fed)">note</text></g><text x="233" y="14" style="fill:#202020;font-family:Arial;font-size:14px" width="80">string</text><text x="334" y="14" width="22" height="14" style="fill:#202020;font-family:Arial;font-size:14px"></text></g><g transform="translate(10, 241)"><g transform="translate(0, 0)"><text x="0" y="14" style="fill:#202020;font-family:&#x27;Arial&#x27;, sans-serif;font-size:14px">▼</text><clipPath id="clip_83fcee12-a639-4a33-91a0-1db1566f8f02"><rect x="21" y="0" width="191" height="17"></rect></clipPath><text x="21" y="14" style="fill:#202020;font-family:Arial;font-size:14px" clip-path="url(#clip_83fcee12-a639-4a33-91a0-1db1566f8f02)">locations</text></g><text x="233" y="14" style="fill:#202020;font-family:Arial;font-size:14px" width="80">object[]</text><text x="334" y="14" width="22" height="14" style="fill:#202020;font-family:Arial;font-size:14px"></text></g><g transform="translate(10, 265)"><g transform="translate(20, 0)"><clipPath id="clip_630122cd-9b8e-4d0e-b08c-4192e0ae44fa"><rect x="21" y="0" width="171" height="17"></rect></clipPath><text x="21" y="14" style="fill:#202020;font-family:Arial;font-size:14px" clip-path="url(#clip_630122cd-9b8e-4d0e-b08c-4192e0ae44fa)">date</text></g><text x="233" y="14" style="fill:#202020;font-family:Arial;font-size:14px" width="80">date</text><text x="334" y="14" width="22" height="14" style="fill:#202020;font-family:Arial;font-size:14px"></text></g><g transform="translate(10, 289)"><g transform="translate(20, 0)"><clipPath id="clip_14abfbef-f274-48d7-8c02-b33125397c09"><rect x="21" y="0" width="171" height="17"></rect></clipPath><text x="21" y="14" style="fill:#202020;font-family:Arial;font-size:14px" clip-path="url(#clip_14abfbef-f274-48d7-8c02-b33125397c09)">location</text></g><text x="233" y="14" style="fill:#202020;font-family:Arial;font-size:14px" width="80">objectId</text><text x="334" y="14" width="22" height="14" style="fill:#202020;font-family:Arial;font-size:14px"></text></g><g transform="translate(10, 313)"><g transform="translate(20, 0)"><clipPath id="clip_361da654-1b09-4735-9a1c-81f7c1f13706"><rect x="21" y="0" width="171" height="17"></rect></clipPath><text x="21" y="14" style="fill:#202020;font-family:Arial;font-size:14px" clip-path="url(#clip_361da654-1b09-4735-9a1c-81f7c1f13706)">plate-number</text></g><text x="233" y="14" style="fill:#202020;font-family:Arial;font-size:14px" width="80">objectId</text><text x="334" y="14" width="22" height="14" style="fill:#202020;font-family:Arial;font-size:14px"></text></g><g transform="translate(10, 337)"><g transform="translate(20, 0)"><clipPath id="clip_4d649200-8b67-4051-810c-efb967734970"><rect x="21" y="0" width="171" height="17"></rect></clipPath><text x="21" y="14" style="fill:#202020;font-family:Arial;font-size:14px" clip-path="url(#clip_4d649200-8b67-4051-810c-efb967734970)">user</text></g><text x="233" y="14" style="fill:#202020;font-family:Arial;font-size:14px" width="80">objectId</text><text x="334" y="14" width="22" height="14" style="fill:#202020;font-family:Arial;font-size:14px"></text></g><g transform="translate(10, 361)"><g transform="translate(0, 0)"><clipPath id="clip_cf365561-656b-451e-bd98-31404f7869a4"><rect x="21" y="0" width="191" height="17"></rect></clipPath><text x="21" y="14" style="fill:#202020;font-family:Arial;font-size:14px" clip-path="url(#clip_cf365561-656b-451e-bd98-31404f7869a4)">images</text></g><text x="233" y="14" style="fill:#202020;font-family:Arial;font-size:14px" width="80">objectId[]</text><text x="334" y="14" width="22" height="14" style="fill:#202020;font-family:Arial;font-size:14px"></text></g><g transform="translate(10, 385)"><g transform="translate(0, 0)"><clipPath id="clip_d03b6e9b-6574-42d5-b60d-43a66ea1ba2d"><rect x="21" y="0" width="191" height="17"></rect></clipPath><text x="21" y="14" style="fill:#202020;font-family:Arial;font-size:14px" clip-path="url(#clip_d03b6e9b-6574-42d5-b60d-43a66ea1ba2d)">files</text></g><text x="233" y="14" style="fill:#202020;font-family:Arial;font-size:14px" width="80">objectId[]</text><text x="334" y="14" width="22" height="14" style="fill:#202020;font-family:Arial;font-size:14px"></text></g></g><rect x="0" y="0" width="380" height="434" style="fill:none;stroke:#e6eaf2"></rect></g><g transform="translate(45.25000000000006, 52.60000000000002)"><rect x="0" y="0" width="380" height="98" style="fill:#fefdfe"></rect><rect x="0" y="0" width="380" height="25" style="fill:#e6eaf2"></rect><text x="10" y="14" style="font-family:&#x27;Arial&#x27;, sans-serif;font-size:14px;fill:#202020">new-samples</text><g transform="translate(0, 15)"><g transform="translate(10, 25)"><g transform="translate(0, 0)"><clipPath id="clip_24cfa15c-e605-47dd-8434-412d8cddeb37"><rect x="21" y="0" width="191" height="17"></rect></clipPath><text x="21" y="14" style="fill:#202020;font-family:Arial;font-size:14px" clip-path="url(#clip_24cfa15c-e605-47dd-8434-412d8cddeb37)">_id</text></g><text x="233" y="14" style="fill:#202020;font-family:Arial;font-size:14px" width="80">objectId</text><text x="334" y="14" width="22" height="14" style="fill:#202020;font-family:Arial;font-size:14px">NN</text></g><g transform="translate(10, 49)"><g transform="translate(0, 0)"><clipPath id="clip_b22784ae-bc7b-4666-8d2c-5eae6327db55"><rect x="21" y="0" width="191" height="17"></rect></clipPath><text x="21" y="14" style="fill:#202020;font-family:Arial;font-size:14px" clip-path="url(#clip_b22784ae-bc7b-4666-8d2c-5eae6327db55)">sample_id</text></g><text x="233" y="14" style="fill:#202020;font-family:Arial;font-size:14px" width="80">objectId</text><text x="334" y="14" width="22" height="14" style="fill:#202020;font-family:Arial;font-size:14px"></text></g></g><rect x="0" y="0" width="380" height="98" style="fill:none;stroke:#e6eaf2"></rect></g><g transform="translate(448.45, 299.34999999999997)"><rect x="0" y="0" width="380" height="194" style="fill:#fefdfe"></rect><rect x="0" y="0" width="380" height="25" style="fill:#e6eaf2"></rect><text x="10" y="14" style="font-family:&#x27;Arial&#x27;, sans-serif;font-size:14px;fill:#202020">users</text><g transform="translate(0, 15)"><g transform="translate(10, 25)"><g transform="translate(0, 0)"><clipPath id="clip_51a18028-d91b-4d58-a162-349f2137bd2d"><rect x="21" y="0" width="191" height="17"></rect></clipPath><text x="21" y="14" style="fill:#202020;font-family:Arial;font-size:14px" clip-path="url(#clip_51a18028-d91b-4d58-a162-349f2137bd2d)">_id</text></g><text x="233" y="14" style="fill:#202020;font-family:Arial;font-size:14px" width="80">objectId</text><text x="334" y="14" width="22" height="14" style="fill:#202020;font-family:Arial;font-size:14px">NN</text></g><g transform="translate(10, 49)"><g transform="translate(0, 0)"><text x="0" y="14" style="fill:#202020;font-family:&#x27;Arial&#x27;, sans-serif;font-size:14px">▼</text><clipPath id="clip_e105ebca-3efc-447f-9858-9f9ac14a220a"><rect x="21" y="0" width="191" height="17"></rect></clipPath><text x="21" y="14" style="fill:#202020;font-family:Arial;font-size:14px" clip-path="url(#clip_e105ebca-3efc-447f-9858-9f9ac14a220a)">name</text></g><text x="233" y="14" style="fill:#202020;font-family:Arial;font-size:14px" width="80">object</text><text x="334" y="14" width="22" height="14" style="fill:#202020;font-family:Arial;font-size:14px"></text></g><g transform="translate(10, 73)"><g transform="translate(20, 0)"><clipPath id="clip_95af9f18-3328-4971-a6fc-924c7a87ea59"><rect x="21" y="0" width="171" height="17"></rect></clipPath><text x="21" y="14" style="fill:#202020;font-family:Arial;font-size:14px" clip-path="url(#clip_95af9f18-3328-4971-a6fc-924c7a87ea59)">first</text></g><text x="233" y="14" style="fill:#202020;font-family:Arial;font-size:14px" width="80">string</text><text x="334" y="14" width="22" height="14" style="fill:#202020;font-family:Arial;font-size:14px"></text></g><g transform="translate(10, 97)"><g transform="translate(20, 0)"><clipPath id="clip_876496b7-2ec7-4501-b896-d674a552964a"><rect x="21" y="0" width="171" height="17"></rect></clipPath><text x="21" y="14" style="fill:#202020;font-family:Arial;font-size:14px" clip-path="url(#clip_876496b7-2ec7-4501-b896-d674a552964a)">last</text></g><text x="233" y="14" style="fill:#202020;font-family:Arial;font-size:14px" width="80">string</text><text x="334" y="14" width="22" height="14" style="fill:#202020;font-family:Arial;font-size:14px"></text></g><g transform="translate(10, 121)"><g transform="translate(0, 0)"><clipPath id="clip_e79c47a9-fea0-45ed-9df7-2c31242c5a17"><rect x="21" y="0" width="191" height="17"></rect></clipPath><text x="21" y="14" style="fill:#202020;font-family:Arial;font-size:14px" clip-path="url(#clip_e79c47a9-fea0-45ed-9df7-2c31242c5a17)">email</text></g><text x="233" y="14" style="fill:#202020;font-family:Arial;font-size:14px" width="80">string</text><text x="334" y="14" width="22" height="14" style="fill:#202020;font-family:Arial;font-size:14px"></text></g><g transform="translate(10, 145)"><g transform="translate(0, 0)"><clipPath id="clip_08c57d2a-4369-4be4-84de-6e0fb4a4a197"><rect x="21" y="0" width="191" height="17"></rect></clipPath><text x="21" y="14" style="fill:#202020;font-family:Arial;font-size:14px" clip-path="url(#clip_08c57d2a-4369-4be4-84de-6e0fb4a4a197)">userid</text></g><text x="233" y="14" style="fill:#202020;font-family:Arial;font-size:14px" width="80">string</text><text x="334" y="14" width="22" height="14" style="fill:#202020;font-family:Arial;font-size:14px"></text></g></g><rect x="0" y="0" width="380" height="194" style="fill:none;stroke:#e6eaf2"></rect></g><g transform="translate(445.3, 542.9500000000002)"><rect x="0" y="0" width="380" height="266" style="fill:#fefdfe"></rect><rect x="0" y="0" width="380" height="25" style="fill:#e6eaf2"></rect><text x="10" y="14" style="font-family:&#x27;Arial&#x27;, sans-serif;font-size:14px;fill:#202020">locations</text><g transform="translate(0, 15)"><g transform="translate(10, 25)"><g transform="translate(0, 0)"><clipPath id="clip_ed189bd4-927b-43b8-b487-6f415ebc6834"><rect x="21" y="0" width="191" height="17"></rect></clipPath><text x="21" y="14" style="fill:#202020;font-family:Arial;font-size:14px" clip-path="url(#clip_ed189bd4-927b-43b8-b487-6f415ebc6834)">_id</text></g><text x="233" y="14" style="fill:#202020;font-family:Arial;font-size:14px" width="80">objectId</text><text x="334" y="14" width="22" height="14" style="fill:#202020;font-family:Arial;font-size:14px">NN</text></g><g transform="translate(10, 49)"><g transform="translate(0, 0)"><clipPath id="clip_57507ef8-a16f-4980-9d0d-eb9a52368cb7"><rect x="21" y="0" width="191" height="17"></rect></clipPath><text x="21" y="14" style="fill:#202020;font-family:Arial;font-size:14px" clip-path="url(#clip_57507ef8-a16f-4980-9d0d-eb9a52368cb7)">name</text></g><text x="233" y="14" style="fill:#202020;font-family:Arial;font-size:14px" width="80">string</text><text x="334" y="14" width="22" height="14" style="fill:#202020;font-family:Arial;font-size:14px"></text></g><g transform="translate(10, 73)"><g transform="translate(0, 0)"><text x="0" y="14" style="fill:#202020;font-family:&#x27;Arial&#x27;, sans-serif;font-size:14px">▼</text><clipPath id="clip_3cc49054-e92e-401a-b384-76699c6db050"><rect x="21" y="0" width="191" height="17"></rect></clipPath><text x="21" y="14" style="fill:#202020;font-family:Arial;font-size:14px" clip-path="url(#clip_3cc49054-e92e-401a-b384-76699c6db050)">location</text></g><text x="233" y="14" style="fill:#202020;font-family:Arial;font-size:14px" width="80">object</text><text x="334" y="14" width="22" height="14" style="fill:#202020;font-family:Arial;font-size:14px"></text></g><g transform="translate(10, 97)"><g transform="translate(20, 0)"><text x="0" y="14" style="fill:#202020;font-family:&#x27;Arial&#x27;, sans-serif;font-size:14px">▼</text><clipPath id="clip_e575dc93-ec04-463e-a90d-cfdf499f97e4"><rect x="21" y="0" width="171" height="17"></rect></clipPath><text x="21" y="14" style="fill:#202020;font-family:Arial;font-size:14px" clip-path="url(#clip_e575dc93-ec04-463e-a90d-cfdf499f97e4)">address</text></g><text x="233" y="14" style="fill:#202020;font-family:Arial;font-size:14px" width="80">object</text><text x="334" y="14" width="22" height="14" style="fill:#202020;font-family:Arial;font-size:14px"></text></g><g transform="translate(10, 121)"><g transform="translate(40, 0)"><clipPath id="clip_3cede1f8-a6cf-4a06-85f8-f647378f1f01"><rect x="21" y="0" width="151" height="17"></rect></clipPath><text x="21" y="14" style="fill:#202020;font-family:Arial;font-size:14px" clip-path="url(#clip_3cede1f8-a6cf-4a06-85f8-f647378f1f01)">street</text></g><text x="233" y="14" style="fill:#202020;font-family:Arial;font-size:14px" width="80">string</text><text x="334" y="14" width="22" height="14" style="fill:#202020;font-family:Arial;font-size:14px"></text></g><g transform="translate(10, 145)"><g transform="translate(40, 0)"><clipPath id="clip_7333e402-3f4e-4ef5-adb5-384b8df7fba5"><rect x="21" y="0" width="151" height="17"></rect></clipPath><text x="21" y="14" style="fill:#202020;font-family:Arial;font-size:14px" clip-path="url(#clip_7333e402-3f4e-4ef5-adb5-384b8df7fba5)">zip</text></g><text x="233" y="14" style="fill:#202020;font-family:Arial;font-size:14px" width="80">string</text><text x="334" y="14" width="22" height="14" style="fill:#202020;font-family:Arial;font-size:14px"></text></g><g transform="translate(10, 169)"><g transform="translate(40, 0)"><clipPath id="clip_d69d29df-45d3-4869-9d8c-cb7a36111ab5"><rect x="21" y="0" width="151" height="17"></rect></clipPath><text x="21" y="14" style="fill:#202020;font-family:Arial;font-size:14px" clip-path="url(#clip_d69d29df-45d3-4869-9d8c-cb7a36111ab5)">city</text></g><text x="233" y="14" style="fill:#202020;font-family:Arial;font-size:14px" width="80">string</text><text x="334" y="14" width="22" height="14" style="fill:#202020;font-family:Arial;font-size:14px"></text></g><g transform="translate(10, 193)"><g transform="translate(40, 0)"><clipPath id="clip_c30d7c3c-9a45-4553-a1a2-02415fe30cdd"><rect x="21" y="0" width="151" height="17"></rect></clipPath><text x="21" y="14" style="fill:#202020;font-family:Arial;font-size:14px" clip-path="url(#clip_c30d7c3c-9a45-4553-a1a2-02415fe30cdd)">country</text></g><text x="233" y="14" style="fill:#202020;font-family:Arial;font-size:14px" width="80">string</text><text x="334" y="14" width="22" height="14" style="fill:#202020;font-family:Arial;font-size:14px"></text></g><g transform="translate(10, 217)"><g transform="translate(20, 0)"><clipPath id="clip_de949a84-3971-46f6-867f-3623704358b3"><rect x="21" y="0" width="171" height="17"></rect></clipPath><text x="21" y="14" style="fill:#202020;font-family:Arial;font-size:14px" clip-path="url(#clip_de949a84-3971-46f6-867f-3623704358b3)">room</text></g><text x="233" y="14" style="fill:#202020;font-family:Arial;font-size:14px" width="80">string</text><text x="334" y="14" width="22" height="14" style="fill:#202020;font-family:Arial;font-size:14px"></text></g></g><rect x="0" y="0" width="380" height="266" style="fill:none;stroke:#e6eaf2"></rect></g><g transform="translate(1488.9999999999998, 704.65)"><rect x="0" y="0" width="380" height="146" style="fill:#fefdfe"></rect><rect x="0" y="0" width="380" height="25" style="fill:#e6eaf2"></rect><text x="10" y="14" style="font-family:&#x27;Arial&#x27;, sans-serif;font-size:14px;fill:#202020">fs.chunks</text><g transform="translate(0, 15)"><g transform="translate(10, 25)"><g transform="translate(0, 0)"><clipPath id="clip_0c6b44ea-6d92-4ae6-879c-a06dfc8a2da5"><rect x="21" y="0" width="191" height="17"></rect></clipPath><text x="21" y="14" style="fill:#202020;font-family:Arial;font-size:14px" clip-path="url(#clip_0c6b44ea-6d92-4ae6-879c-a06dfc8a2da5)">_id</text></g><text x="233" y="14" style="fill:#202020;font-family:Arial;font-size:14px" width="80">objectId</text><text x="334" y="14" width="22" height="14" style="fill:#202020;font-family:Arial;font-size:14px">NN</text></g><g transform="translate(10, 49)"><g transform="translate(0, 0)"><clipPath id="clip_4e6c3533-2021-4f20-bf4e-99bb801cc796"><rect x="21" y="0" width="191" height="17"></rect></clipPath><text x="21" y="14" style="fill:#202020;font-family:Arial;font-size:14px" clip-path="url(#clip_4e6c3533-2021-4f20-bf4e-99bb801cc796)">files_id</text></g><text x="233" y="14" style="fill:#202020;font-family:Arial;font-size:14px" width="80">objectId</text><text x="334" y="14" width="22" height="14" style="fill:#202020;font-family:Arial;font-size:14px"></text></g><g transform="translate(10, 73)"><g transform="translate(0, 0)"><clipPath id="clip_c5a9e064-a7e3-4aa1-be01-8782cd1f3367"><rect x="21" y="0" width="191" height="17"></rect></clipPath><text x="21" y="14" style="fill:#202020;font-family:Arial;font-size:14px" clip-path="url(#clip_c5a9e064-a7e3-4aa1-be01-8782cd1f3367)">n</text></g><text x="233" y="14" style="fill:#202020;font-family:Arial;font-size:14px" width="80">int</text><text x="334" y="14" width="22" height="14" style="fill:#202020;font-family:Arial;font-size:14px"></text></g><g transform="translate(10, 97)"><g transform="translate(0, 0)"><clipPath id="clip_1719198c-bce0-4c3b-80f4-6080ecd3f8c6"><rect x="21" y="0" width="191" height="17"></rect></clipPath><text x="21" y="14" style="fill:#202020;font-family:Arial;font-size:14px" clip-path="url(#clip_1719198c-bce0-4c3b-80f4-6080ecd3f8c6)">data</text></g><text x="233" y="14" style="fill:#202020;font-family:Arial;font-size:14px" width="80">binData</text><text x="334" y="14" width="22" height="14" style="fill:#202020;font-family:Arial;font-size:14px"></text></g></g><rect x="0" y="0" width="380" height="146" style="fill:none;stroke:#e6eaf2"></rect></g><g transform="translate(1489.0000000000002, 391.75)"><rect x="0" y="0" width="380" height="266" style="fill:#fefdfe"></rect><rect x="0" y="0" width="380" height="25" style="fill:#e6eaf2"></rect><text x="10" y="14" style="font-family:&#x27;Arial&#x27;, sans-serif;font-size:14px;fill:#202020">fs.files</text><g transform="translate(0, 15)"><g transform="translate(10, 25)"><g transform="translate(0, 0)"><clipPath id="clip_7485af42-42ac-4fa2-a024-bc72b1084721"><rect x="21" y="0" width="191" height="17"></rect></clipPath><text x="21" y="14" style="fill:#202020;font-family:Arial;font-size:14px" clip-path="url(#clip_7485af42-42ac-4fa2-a024-bc72b1084721)">_id</text></g><text x="233" y="14" style="fill:#202020;font-family:Arial;font-size:14px" width="80">objectId</text><text x="334" y="14" width="22" height="14" style="fill:#202020;font-family:Arial;font-size:14px">NN</text></g><g transform="translate(10, 49)"><g transform="translate(0, 0)"><clipPath id="clip_0f1ea0d8-c788-40d6-8b6f-ed83610390dd"><rect x="21" y="0" width="191" height="17"></rect></clipPath><text x="21" y="14" style="fill:#202020;font-family:Arial;font-size:14px" clip-path="url(#clip_0f1ea0d8-c788-40d6-8b6f-ed83610390dd)">length</text></g><text x="233" y="14" style="fill:#202020;font-family:Arial;font-size:14px" width="80">int</text><text x="334" y="14" width="22" height="14" style="fill:#202020;font-family:Arial;font-size:14px"></text></g><g transform="translate(10, 73)"><g transform="translate(0, 0)"><clipPath id="clip_1621d2a8-86b2-4615-9656-b25b88846651"><rect x="21" y="0" width="191" height="17"></rect></clipPath><text x="21" y="14" style="fill:#202020;font-family:Arial;font-size:14px" clip-path="url(#clip_1621d2a8-86b2-4615-9656-b25b88846651)">chunkSize</text></g><text x="233" y="14" style="fill:#202020;font-family:Arial;font-size:14px" width="80">int</text><text x="334" y="14" width="22" height="14" style="fill:#202020;font-family:Arial;font-size:14px"></text></g><g transform="translate(10, 97)"><g transform="translate(0, 0)"><clipPath id="clip_3cf803c0-69fc-4f37-951e-ffe2884104fb"><rect x="21" y="0" width="191" height="17"></rect></clipPath><text x="21" y="14" style="fill:#202020;font-family:Arial;font-size:14px" clip-path="url(#clip_3cf803c0-69fc-4f37-951e-ffe2884104fb)">uploadDate</text></g><text x="233" y="14" style="fill:#202020;font-family:Arial;font-size:14px" width="80">date</text><text x="334" y="14" width="22" height="14" style="fill:#202020;font-family:Arial;font-size:14px"></text></g><g transform="translate(10, 121)"><g transform="translate(0, 0)"><clipPath id="clip_45e3287f-db93-42e5-9cdb-f75d41277f18"><rect x="21" y="0" width="191" height="17"></rect></clipPath><text x="21" y="14" style="fill:#202020;font-family:Arial;font-size:14px" clip-path="url(#clip_45e3287f-db93-42e5-9cdb-f75d41277f18)">md5</text></g><text x="233" y="14" style="fill:#202020;font-family:Arial;font-size:14px" width="80">string</text><text x="334" y="14" width="22" height="14" style="fill:#202020;font-family:Arial;font-size:14px"></text></g><g transform="translate(10, 145)"><g transform="translate(0, 0)"><clipPath id="clip_c8fac6a0-4a26-44fe-a661-1f667b817ddd"><rect x="21" y="0" width="191" height="17"></rect></clipPath><text x="21" y="14" style="fill:#202020;font-family:Arial;font-size:14px" clip-path="url(#clip_c8fac6a0-4a26-44fe-a661-1f667b817ddd)">filename</text></g><text x="233" y="14" style="fill:#202020;font-family:Arial;font-size:14px" width="80">string</text><text x="334" y="14" width="22" height="14" style="fill:#202020;font-family:Arial;font-size:14px"></text></g><g transform="translate(10, 169)"><g transform="translate(0, 0)"><clipPath id="clip_bed81164-31bd-4982-a2f0-313040343707"><rect x="21" y="0" width="191" height="17"></rect></clipPath><text x="21" y="14" style="fill:#202020;font-family:Arial;font-size:14px" clip-path="url(#clip_bed81164-31bd-4982-a2f0-313040343707)">contentType</text></g><text x="233" y="14" style="fill:#202020;font-family:Arial;font-size:14px" width="80">string</text><text x="334" y="14" width="22" height="14" style="fill:#202020;font-family:Arial;font-size:14px"></text></g><g transform="translate(10, 193)"><g transform="translate(0, 0)"><clipPath id="clip_1668b65a-7d0e-48a1-ad9c-4232a5272cf4"><rect x="21" y="0" width="191" height="17"></rect></clipPath><text x="21" y="14" style="fill:#202020;font-family:Arial;font-size:14px" clip-path="url(#clip_1668b65a-7d0e-48a1-ad9c-4232a5272cf4)">aliases</text></g><text x="233" y="14" style="fill:#202020;font-family:Arial;font-size:14px" width="80">string[]</text><text x="334" y="14" width="22" height="14" style="fill:#202020;font-family:Arial;font-size:14px"></text></g><g transform="translate(10, 217)"><g transform="translate(0, 0)"><clipPath id="clip_20d1fa44-addb-4966-bc48-85169b97f30d"><rect x="21" y="0" width="191" height="17"></rect></clipPath><text x="21" y="14" style="fill:#202020;font-family:Arial;font-size:14px" clip-path="url(#clip_20d1fa44-addb-4966-bc48-85169b97f30d)">metadata</text></g><text x="233" y="14" style="fill:#202020;font-family:Arial;font-size:14px" width="80">any</text><text x="334" y="14" width="22" height="14" style="fill:#202020;font-family:Arial;font-size:14px"></text></g></g><rect x="0" y="0" width="380" height="266" style="fill:none;stroke:#e6eaf2"></rect></g><g><svg><defs><filter id="table_glow"><feGaussianBlur stdDeviation="3.5" result="coloredBlur"></feGaussianBlur><feMerge><feMergeNode in="coloredBlur"></feMergeNode><feMergeNode in="SourceGraphic"></feMergeNode></feMerge></filter></defs><line x1="828.45" y1="349.34999999999997" x2="990.2499999999998" y2="136.94999999999996" stroke="#ecad5a" stroke-width="2"></line></svg><svg><defs><filter id="table_glow"><feGaussianBlur stdDeviation="3.5" result="coloredBlur"></feGaussianBlur><feMerge><feMergeNode in="coloredBlur"></feMergeNode><feMergeNode in="SourceGraphic"></feMergeNode></feMerge></filter></defs><line x1="828.45" y1="349.34999999999997" x2="990.2499999999998" y2="400.94999999999993" stroke="#ecad5a" stroke-width="2"></line></svg><svg><defs><filter id="table_glow"><feGaussianBlur stdDeviation="3.5" result="coloredBlur"></feGaussianBlur><feMerge><feMergeNode in="coloredBlur"></feMergeNode><feMergeNode in="SourceGraphic"></feMergeNode></feMerge></filter></defs><line x1="825.3" y1="592.9500000000002" x2="990.2499999999998" y2="352.94999999999993" stroke="#ecad5a" stroke-width="2"></line></svg><svg><defs><filter id="table_glow"><feGaussianBlur stdDeviation="3.5" result="coloredBlur"></feGaussianBlur><feMerge><feMergeNode in="coloredBlur"></feMergeNode><feMergeNode in="SourceGraphic"></feMergeNode></feMerge></filter></defs><path d="
M 988.1500000000001 603.3000000000002 
H 968.1500000000001 
V 376.94999999999993 
H 990.2499999999998
" fill="none" stroke="#ecad5a" stroke-width="2"></path></svg><svg><defs><filter id="table_glow"><feGaussianBlur stdDeviation="3.5" result="coloredBlur"></feGaussianBlur><feMerge><feMergeNode in="coloredBlur"></feMergeNode><feMergeNode in="SourceGraphic"></feMergeNode></feMerge></filter></defs><line x1="828.45" y1="349.34999999999997" x2="988.1500000000001" y2="675.3000000000002" stroke="#ecad5a" stroke-width="2"></line></svg><svg><defs><filter id="table_glow"><feGaussianBlur stdDeviation="3.5" result="coloredBlur"></feGaussianBlur><feMerge><feMergeNode in="coloredBlur"></feMergeNode><feMergeNode in="SourceGraphic"></feMergeNode></feMerge></filter></defs><line x1="828.45" y1="349.34999999999997" x2="988.1500000000001" y2="771.3000000000002" stroke="#ecad5a" stroke-width="2"></line></svg><svg><defs><filter id="table_glow"><feGaussianBlur stdDeviation="3.5" result="coloredBlur"></feGaussianBlur><feMerge><feMergeNode in="coloredBlur"></feMergeNode><feMergeNode in="SourceGraphic"></feMergeNode></feMerge></filter></defs><path d="
M 1370.2499999999998 112.94999999999996
H 1390.2499999999998
V 699.3000000000002
H 1368.15
" fill="none" stroke="#ecad5a" stroke-width="2"></path></svg><svg><defs><filter id="table_glow"><feGaussianBlur stdDeviation="3.5" result="coloredBlur"></feGaussianBlur><feMerge><feMergeNode in="coloredBlur"></feMergeNode><feMergeNode in="SourceGraphic"></feMergeNode></feMerge></filter></defs><line x1="825.3" y1="592.9500000000002" x2="988.1500000000001" y2="795.3000000000002" stroke="#ecad5a" stroke-width="2"></line></svg><svg><defs><filter id="table_glow"><feGaussianBlur stdDeviation="3.5" result="coloredBlur"></feGaussianBlur><feMerge><feMergeNode in="coloredBlur"></feMergeNode><feMergeNode in="SourceGraphic"></feMergeNode></feMerge></filter></defs><line x1="448.45" y1="349.34999999999997" x2="424.19999999999993" y2="266.25000000000006" stroke="#ecad5a" stroke-width="2"></line></svg><svg><defs><filter id="table_glow"><feGaussianBlur stdDeviation="3.5" result="coloredBlur"></feGaussianBlur><feMerge><feMergeNode in="coloredBlur"></feMergeNode><feMergeNode in="SourceGraphic"></feMergeNode></feMerge></filter></defs><path d="
M 1869.0000000000002 441.75
H 1889.0000000000002
V 778.65
H 1868.9999999999998
" fill="none" stroke="#ecad5a" stroke-width="2"></path></svg><svg><defs><filter id="table_glow"><feGaussianBlur stdDeviation="3.5" result="coloredBlur"></feGaussianBlur><feMerge><feMergeNode in="coloredBlur"></feMergeNode><feMergeNode in="SourceGraphic"></feMergeNode></feMerge></filter></defs><line x1="1489.0000000000002" y1="441.75" x2="1368.15" y2="819.3000000000002" stroke="#ecad5a" stroke-width="2"></line></svg><svg><defs><filter id="table_glow"><feGaussianBlur stdDeviation="3.5" result="coloredBlur"></feGaussianBlur><feMerge><feMergeNode in="coloredBlur"></feMergeNode><feMergeNode in="SourceGraphic"></feMergeNode></feMerge></filter></defs><line x1="1489.0000000000002" y1="441.75" x2="1370.2499999999998" y2="424.94999999999993" stroke="#ecad5a" stroke-width="2"></line></svg><svg><defs><filter id="table_glow"><feGaussianBlur stdDeviation="3.5" result="coloredBlur"></feGaussianBlur><feMerge><feMergeNode in="coloredBlur"></feMergeNode><feMergeNode in="SourceGraphic"></feMergeNode></feMerge></filter></defs><line x1="1489.0000000000002" y1="441.75" x2="1370.2499999999998" y2="448.94999999999993" stroke="#ecad5a" stroke-width="2"></line></svg><svg><defs><filter id="table_glow"><feGaussianBlur stdDeviation="3.5" result="coloredBlur"></feGaussianBlur><feMerge><feMergeNode in="coloredBlur"></feMergeNode><feMergeNode in="SourceGraphic"></feMergeNode></feMerge></filter></defs><line x1="990.2499999999998" y1="88.94999999999996" x2="425.25000000000006" y2="126.60000000000002" stroke="#ecad5a" stroke-width="2"></line></svg></g></svg>