<?xml version="1.0" encoding="UTF-8"?>
<?xml-stylesheet href="https://cdnjs.cloudflare.com/ajax/libs/font-awesome/6.5.2/css/all.min.css" type="text/css"?>
<svg aria-roledescription="sequence" role="graphics-document document" viewBox="-50 -10 1985 2551" style="max-width: 100%;" xmlns="http://www.w3.org/2000/svg" width="100%" id="graph-div" height="100%" xmlns:xlink="http://www.w3.org/1999/xlink"><g><rect class="actor actor-bottom" ry="3" rx="3" name="NFC Tag" height="65" width="150" stroke="#666" fill="#eaeaea" y="2465" x="1652"></rect><text class="actor" alignment-baseline="central" dominant-baseline="central" style="text-anchor: middle; font-size: 16px; font-weight: 400;" y="2497.5" x="1727"><tspan dy="0" x="1727">NFC Tag</tspan></text></g><g><rect class="actor actor-bottom" ry="3" rx="3" name="Raspberry Pi Zero 2 W" height="65" width="188" stroke="#666" fill="#eaeaea" y="2465" x="1252"></rect><text class="actor" alignment-baseline="central" dominant-baseline="central" style="text-anchor: middle; font-size: 16px; font-weight: 400;" y="2497.5" x="1346"><tspan dy="0" x="1346">Raspberry Pi Zero 2 W</tspan></text></g><g><rect class="actor actor-bottom" ry="3" rx="3" name="MongoDB" height="65" width="150" stroke="#666" fill="#eaeaea" y="2465" x="946"></rect><text class="actor" alignment-baseline="central" dominant-baseline="central" style="text-anchor: middle; font-size: 16px; font-weight: 400;" y="2497.5" x="1021"><tspan dy="0" x="1021">MongoDB</tspan></text></g><g><rect class="actor actor-bottom" ry="3" rx="3" name="GUI" height="65" width="150" stroke="#666" fill="#eaeaea" y="2465" x="320"></rect><text class="actor" alignment-baseline="central" dominant-baseline="central" style="text-anchor: middle; font-size: 16px; font-weight: 400;" y="2497.5" x="395"><tspan dy="0" x="395">GUI</tspan></text></g><g><rect class="actor actor-bottom" ry="3" rx="3" name="User" height="65" width="150" stroke="#666" fill="#eaeaea" y="2465" x="0"></rect><text class="actor" alignment-baseline="central" dominant-baseline="central" style="text-anchor: middle; font-size: 16px; font-weight: 400;" y="2497.5" x="75"><tspan dy="0" x="75">User</tspan></text></g><g><line stroke="#999" stroke-width="0.5px" class="200" y2="2465" x2="1727" y1="5" x1="1727" id="actor1059"></line><g id="root-1059"><rect class="actor actor-top" ry="3" rx="3" name="NFC Tag" height="65" width="150" stroke="#666" fill="#eaeaea" y="0" x="1652"></rect><text class="actor" alignment-baseline="central" dominant-baseline="central" style="text-anchor: middle; font-size: 16px; font-weight: 400;" y="32.5" x="1727"><tspan dy="0" x="1727">NFC Tag</tspan></text></g></g><g><line stroke="#999" stroke-width="0.5px" class="200" y2="2465" x2="1346" y1="5" x1="1346" id="actor1058"></line><g id="root-1058"><rect class="actor actor-top" ry="3" rx="3" name="Raspberry Pi Zero 2 W" height="65" width="188" stroke="#666" fill="#eaeaea" y="0" x="1252"></rect><text class="actor" alignment-baseline="central" dominant-baseline="central" style="text-anchor: middle; font-size: 16px; font-weight: 400;" y="32.5" x="1346"><tspan dy="0" x="1346">Raspberry Pi Zero 2 W</tspan></text></g></g><g><line stroke="#999" stroke-width="0.5px" class="200" y2="2465" x2="1021" y1="5" x1="1021" id="actor1057"></line><g id="root-1057"><rect class="actor actor-top" ry="3" rx="3" name="MongoDB" height="65" width="150" stroke="#666" fill="#eaeaea" y="0" x="946"></rect><text class="actor" alignment-baseline="central" dominant-baseline="central" style="text-anchor: middle; font-size: 16px; font-weight: 400;" y="32.5" x="1021"><tspan dy="0" x="1021">MongoDB</tspan></text></g></g><g><line stroke="#999" stroke-width="0.5px" class="200" y2="2465" x2="395" y1="5" x1="395" id="actor1056"></line><g id="root-1056"><rect class="actor actor-top" ry="3" rx="3" name="GUI" height="65" width="150" stroke="#666" fill="#eaeaea" y="0" x="320"></rect><text class="actor" alignment-baseline="central" dominant-baseline="central" style="text-anchor: middle; font-size: 16px; font-weight: 400;" y="32.5" x="395"><tspan dy="0" x="395">GUI</tspan></text></g></g><g><line stroke="#999" stroke-width="0.5px" class="200" y2="2465" x2="75" y1="5" x1="75" id="actor1055"></line><g id="root-1055"><rect class="actor actor-top" ry="3" rx="3" name="User" height="65" width="150" stroke="#666" fill="#eaeaea" y="0" x="0"></rect><text class="actor" alignment-baseline="central" dominant-baseline="central" style="text-anchor: middle; font-size: 16px; font-weight: 400;" y="32.5" x="75"><tspan dy="0" x="75">User</tspan></text></g></g><style>#graph-div{font-family:"trebuchet ms",verdana,arial,sans-serif;font-size:16px;fill:#333;}#graph-div .error-icon{fill:#552222;}#graph-div .error-text{fill:#552222;stroke:#552222;}#graph-div .edge-thickness-normal{stroke-width:2px;}#graph-div .edge-thickness-thick{stroke-width:3.5px;}#graph-div .edge-pattern-solid{stroke-dasharray:0;}#graph-div .edge-pattern-dashed{stroke-dasharray:3;}#graph-div .edge-pattern-dotted{stroke-dasharray:2;}#graph-div .marker{fill:#333333;stroke:#333333;}#graph-div .marker.cross{stroke:#333333;}#graph-div svg{font-family:"trebuchet ms",verdana,arial,sans-serif;font-size:16px;}#graph-div .actor{stroke:hsl(259.6261682243, 59.7765363128%, 87.9019607843%);fill:#ECECFF;}#graph-div text.actor&gt;tspan{fill:black;stroke:none;}#graph-div .actor-line{stroke:grey;}#graph-div .messageLine0{stroke-width:1.5;stroke-dasharray:none;stroke:#333;}#graph-div .messageLine1{stroke-width:1.5;stroke-dasharray:2,2;stroke:#333;}#graph-div #arrowhead path{fill:#333;stroke:#333;}#graph-div .sequenceNumber{fill:white;}#graph-div #sequencenumber{fill:#333;}#graph-div #crosshead path{fill:#333;stroke:#333;}#graph-div .messageText{fill:#333;stroke:none;}#graph-div .labelBox{stroke:hsl(259.6261682243, 59.7765363128%, 87.9019607843%);fill:#ECECFF;}#graph-div .labelText,#graph-div .labelText&gt;tspan{fill:black;stroke:none;}#graph-div .loopText,#graph-div .loopText&gt;tspan{fill:black;stroke:none;}#graph-div .loopLine{stroke-width:2px;stroke-dasharray:2,2;stroke:hsl(259.6261682243, 59.7765363128%, 87.9019607843%);fill:hsl(259.6261682243, 59.7765363128%, 87.9019607843%);}#graph-div .note{stroke:#aaaa33;fill:#fff5ad;}#graph-div .noteText,#graph-div .noteText&gt;tspan{fill:black;stroke:none;}#graph-div .activation0{fill:#f4f4f4;stroke:#666;}#graph-div .activation1{fill:#f4f4f4;stroke:#666;}#graph-div .activation2{fill:#f4f4f4;stroke:#666;}#graph-div .actorPopupMenu{position:absolute;}#graph-div .actorPopupMenuPanel{position:absolute;fill:#ECECFF;box-shadow:0px 8px 16px 0px rgba(0,0,0,0.2);filter:drop-shadow(3px 5px 2px rgb(0 0 0 / 0.4));}#graph-div .actor-man line{stroke:hsl(259.6261682243, 59.7765363128%, 87.9019607843%);fill:#ECECFF;}#graph-div .actor-man circle,#graph-div line{stroke:hsl(259.6261682243, 59.7765363128%, 87.9019607843%);fill:#ECECFF;stroke-width:2px;}#graph-div :root{--mermaid-font-family:"trebuchet ms",verdana,arial,sans-serif;}</style><g></g><defs><symbol height="24" width="24" id="computer"><path d="M2 2v13h20v-13h-20zm18 11h-16v-9h16v9zm-10.228 6l.466-1h3.524l.467 1h-4.457zm14.228 3h-24l2-6h2.104l-1.33 4h18.45l-1.297-4h2.073l2 6zm-5-10h-14v-7h14v7z" transform="scale(.5)"></path></symbol></defs><defs><symbol clip-rule="evenodd" fill-rule="evenodd" id="database"><path d="M12.258.001l.256.004.255.005.253.008.251.01.249.012.247.015.246.016.242.019.241.02.239.023.236.024.233.027.231.028.229.031.225.032.223.034.22.036.217.038.214.04.211.041.208.043.205.045.201.046.198.048.194.05.191.051.187.053.183.054.18.056.175.057.172.059.168.06.163.061.16.063.155.064.15.066.074.033.073.033.071.034.07.034.069.035.068.035.067.035.066.035.064.036.064.036.062.036.06.036.06.037.058.037.058.037.055.038.055.038.053.038.052.038.051.039.05.039.048.039.047.039.045.04.044.04.043.04.041.04.04.041.039.041.037.041.036.041.034.041.033.042.032.042.03.042.029.042.027.042.026.043.024.043.023.043.021.043.02.043.018.044.017.043.015.044.013.044.012.044.011.045.009.044.007.045.006.045.004.045.002.045.001.045v17l-.001.045-.002.045-.004.045-.006.045-.007.045-.009.044-.011.045-.012.044-.013.044-.015.044-.017.043-.018.044-.02.043-.021.043-.023.043-.024.043-.026.043-.027.042-.029.042-.03.042-.032.042-.033.042-.034.041-.036.041-.037.041-.039.041-.04.041-.041.04-.043.04-.044.04-.045.04-.047.039-.048.039-.05.039-.051.039-.052.038-.053.038-.055.038-.055.038-.058.037-.058.037-.06.037-.06.036-.062.036-.064.036-.064.036-.066.035-.067.035-.068.035-.069.035-.07.034-.071.034-.073.033-.074.033-.15.066-.155.064-.16.063-.163.061-.168.06-.172.059-.175.057-.18.056-.183.054-.187.053-.191.051-.194.05-.198.048-.201.046-.205.045-.208.043-.211.041-.214.04-.217.038-.22.036-.223.034-.225.032-.229.031-.231.028-.233.027-.236.024-.239.023-.241.02-.242.019-.246.016-.247.015-.249.012-.251.01-.253.008-.255.005-.256.004-.258.001-.258-.001-.256-.004-.255-.005-.253-.008-.251-.01-.249-.012-.247-.015-.245-.016-.243-.019-.241-.02-.238-.023-.236-.024-.234-.027-.231-.028-.228-.031-.226-.032-.223-.034-.22-.036-.217-.038-.214-.04-.211-.041-.208-.043-.204-.045-.201-.046-.198-.048-.195-.05-.19-.051-.187-.053-.184-.054-.179-.056-.176-.057-.172-.059-.167-.06-.164-.061-.159-.063-.155-.064-.151-.066-.074-.033-.072-.033-.072-.034-.07-.034-.069-.035-.068-.035-.067-.035-.066-.035-.064-.036-.063-.036-.062-.036-.061-.036-.06-.037-.058-.037-.057-.037-.056-.038-.055-.038-.053-.038-.052-.038-.051-.039-.049-.039-.049-.039-.046-.039-.046-.04-.044-.04-.043-.04-.041-.04-.04-.041-.039-.041-.037-.041-.036-.041-.034-.041-.033-.042-.032-.042-.03-.042-.029-.042-.027-.042-.026-.043-.024-.043-.023-.043-.021-.043-.02-.043-.018-.044-.017-.043-.015-.044-.013-.044-.012-.044-.011-.045-.009-.044-.007-.045-.006-.045-.004-.045-.002-.045-.001-.045v-17l.001-.045.002-.045.004-.045.006-.045.007-.045.009-.044.011-.045.012-.044.013-.044.015-.044.017-.043.018-.044.02-.043.021-.043.023-.043.024-.043.026-.043.027-.042.029-.042.03-.042.032-.042.033-.042.034-.041.036-.041.037-.041.039-.041.04-.041.041-.04.043-.04.044-.04.046-.04.046-.039.049-.039.049-.039.051-.039.052-.038.053-.038.055-.038.056-.038.057-.037.058-.037.06-.037.061-.036.062-.036.063-.036.064-.036.066-.035.067-.035.068-.035.069-.035.07-.034.072-.034.072-.033.074-.033.151-.066.155-.064.159-.063.164-.061.167-.06.172-.059.176-.057.179-.056.184-.054.187-.053.19-.051.195-.05.198-.048.201-.046.204-.045.208-.043.211-.041.214-.04.217-.038.22-.036.223-.034.226-.032.228-.031.231-.028.234-.027.236-.024.238-.023.241-.02.243-.019.245-.016.247-.015.249-.012.251-.01.253-.008.255-.005.256-.004.258-.001.258.001zm-9.258 20.499v.01l.001.021.003.021.004.022.005.021.006.022.007.022.009.023.01.022.011.023.012.023.013.023.015.023.016.024.017.023.018.024.019.024.021.024.022.025.023.024.024.025.052.049.056.05.061.051.066.051.07.051.075.051.079.052.084.052.088.052.092.052.097.052.102.051.105.052.11.052.114.051.119.051.123.051.127.05.131.05.135.05.139.048.144.049.147.047.152.047.155.047.16.045.163.045.167.043.171.043.176.041.178.041.183.039.187.039.19.037.194.035.197.035.202.033.204.031.209.03.212.029.216.027.219.025.222.024.226.021.23.02.233.018.236.016.24.015.243.012.246.01.249.008.253.005.256.004.259.001.26-.001.257-.004.254-.005.25-.008.247-.011.244-.012.241-.014.237-.016.233-.018.231-.021.226-.021.224-.024.22-.026.216-.027.212-.028.21-.031.205-.031.202-.034.198-.034.194-.036.191-.037.187-.039.183-.04.179-.04.175-.042.172-.043.168-.044.163-.045.16-.046.155-.046.152-.047.148-.048.143-.049.139-.049.136-.05.131-.05.126-.05.123-.051.118-.052.114-.051.11-.052.106-.052.101-.052.096-.052.092-.052.088-.053.083-.051.079-.052.074-.052.07-.051.065-.051.06-.051.056-.05.051-.05.023-.024.023-.025.021-.024.02-.024.019-.024.018-.024.017-.024.015-.023.014-.024.013-.023.012-.023.01-.023.01-.022.008-.022.006-.022.006-.022.004-.022.004-.021.001-.021.001-.021v-4.127l-.077.055-.08.053-.083.054-.085.053-.087.052-.09.052-.093.051-.095.05-.097.05-.1.049-.102.049-.105.048-.106.047-.109.047-.111.046-.114.045-.115.045-.118.044-.12.043-.122.042-.124.042-.126.041-.128.04-.13.04-.132.038-.134.038-.135.037-.138.037-.139.035-.142.035-.143.034-.144.033-.147.032-.148.031-.15.03-.151.03-.153.029-.154.027-.156.027-.158.026-.159.025-.161.024-.162.023-.163.022-.165.021-.166.02-.167.019-.169.018-.169.017-.171.016-.173.015-.173.014-.175.013-.175.012-.177.011-.178.01-.179.008-.179.008-.181.006-.182.005-.182.004-.184.003-.184.002h-.37l-.184-.002-.184-.003-.182-.004-.182-.005-.181-.006-.179-.008-.179-.008-.178-.01-.176-.011-.176-.012-.175-.013-.173-.014-.172-.015-.171-.016-.17-.017-.169-.018-.167-.019-.166-.02-.165-.021-.163-.022-.162-.023-.161-.024-.159-.025-.157-.026-.156-.027-.155-.027-.153-.029-.151-.03-.15-.03-.148-.031-.146-.032-.145-.033-.143-.034-.141-.035-.14-.035-.137-.037-.136-.037-.134-.038-.132-.038-.13-.04-.128-.04-.126-.041-.124-.042-.122-.042-.12-.044-.117-.043-.116-.045-.113-.045-.112-.046-.109-.047-.106-.047-.105-.048-.102-.049-.1-.049-.097-.05-.095-.05-.093-.052-.09-.051-.087-.052-.085-.053-.083-.054-.08-.054-.077-.054v4.127zm0-5.654v.011l.001.021.003.021.004.021.005.022.006.022.007.022.009.022.01.022.011.023.012.023.013.023.015.024.016.023.017.024.018.024.019.024.021.024.022.024.023.025.024.024.052.05.056.05.061.05.066.051.07.051.075.052.079.051.084.052.088.052.092.052.097.052.102.052.105.052.11.051.114.051.119.052.123.05.127.051.131.05.135.049.139.049.144.048.147.048.152.047.155.046.16.045.163.045.167.044.171.042.176.042.178.04.183.04.187.038.19.037.194.036.197.034.202.033.204.032.209.03.212.028.216.027.219.025.222.024.226.022.23.02.233.018.236.016.24.014.243.012.246.01.249.008.253.006.256.003.259.001.26-.001.257-.003.254-.006.25-.008.247-.01.244-.012.241-.015.237-.016.233-.018.231-.02.226-.022.224-.024.22-.025.216-.027.212-.029.21-.03.205-.032.202-.033.198-.035.194-.036.191-.037.187-.039.183-.039.179-.041.175-.042.172-.043.168-.044.163-.045.16-.045.155-.047.152-.047.148-.048.143-.048.139-.05.136-.049.131-.05.126-.051.123-.051.118-.051.114-.052.11-.052.106-.052.101-.052.096-.052.092-.052.088-.052.083-.052.079-.052.074-.051.07-.052.065-.051.06-.05.056-.051.051-.049.023-.025.023-.024.021-.025.02-.024.019-.024.018-.024.017-.024.015-.023.014-.023.013-.024.012-.022.01-.023.01-.023.008-.022.006-.022.006-.022.004-.021.004-.022.001-.021.001-.021v-4.139l-.077.054-.08.054-.083.054-.085.052-.087.053-.09.051-.093.051-.095.051-.097.05-.1.049-.102.049-.105.048-.106.047-.109.047-.111.046-.114.045-.115.044-.118.044-.12.044-.122.042-.124.042-.126.041-.128.04-.13.039-.132.039-.134.038-.135.037-.138.036-.139.036-.142.035-.143.033-.144.033-.147.033-.148.031-.15.03-.151.03-.153.028-.154.028-.156.027-.158.026-.159.025-.161.024-.162.023-.163.022-.165.021-.166.02-.167.019-.169.018-.169.017-.171.016-.173.015-.173.014-.175.013-.175.012-.177.011-.178.009-.179.009-.179.007-.181.007-.182.005-.182.004-.184.003-.184.002h-.37l-.184-.002-.184-.003-.182-.004-.182-.005-.181-.007-.179-.007-.179-.009-.178-.009-.176-.011-.176-.012-.175-.013-.173-.014-.172-.015-.171-.016-.17-.017-.169-.018-.167-.019-.166-.02-.165-.021-.163-.022-.162-.023-.161-.024-.159-.025-.157-.026-.156-.027-.155-.028-.153-.028-.151-.03-.15-.03-.148-.031-.146-.033-.145-.033-.143-.033-.141-.035-.14-.036-.137-.036-.136-.037-.134-.038-.132-.039-.13-.039-.128-.04-.126-.041-.124-.042-.122-.043-.12-.043-.117-.044-.116-.044-.113-.046-.112-.046-.109-.046-.106-.047-.105-.048-.102-.049-.1-.049-.097-.05-.095-.051-.093-.051-.09-.051-.087-.053-.085-.052-.083-.054-.08-.054-.077-.054v4.139zm0-5.666v.011l.001.02.003.022.004.021.005.022.006.021.007.022.009.023.01.022.011.023.012.023.013.023.015.023.016.024.017.024.018.023.019.024.021.025.022.024.023.024.024.025.052.05.056.05.061.05.066.051.07.051.075.052.079.051.084.052.088.052.092.052.097.052.102.052.105.051.11.052.114.051.119.051.123.051.127.05.131.05.135.05.139.049.144.048.147.048.152.047.155.046.16.045.163.045.167.043.171.043.176.042.178.04.183.04.187.038.19.037.194.036.197.034.202.033.204.032.209.03.212.028.216.027.219.025.222.024.226.021.23.02.233.018.236.017.24.014.243.012.246.01.249.008.253.006.256.003.259.001.26-.001.257-.003.254-.006.25-.008.247-.01.244-.013.241-.014.237-.016.233-.018.231-.02.226-.022.224-.024.22-.025.216-.027.212-.029.21-.03.205-.032.202-.033.198-.035.194-.036.191-.037.187-.039.183-.039.179-.041.175-.042.172-.043.168-.044.163-.045.16-.045.155-.047.152-.047.148-.048.143-.049.139-.049.136-.049.131-.051.126-.05.123-.051.118-.052.114-.051.11-.052.106-.052.101-.052.096-.052.092-.052.088-.052.083-.052.079-.052.074-.052.07-.051.065-.051.06-.051.056-.05.051-.049.023-.025.023-.025.021-.024.02-.024.019-.024.018-.024.017-.024.015-.023.014-.024.013-.023.012-.023.01-.022.01-.023.008-.022.006-.022.006-.022.004-.022.004-.021.001-.021.001-.021v-4.153l-.077.054-.08.054-.083.053-.085.053-.087.053-.09.051-.093.051-.095.051-.097.05-.1.049-.102.048-.105.048-.106.048-.109.046-.111.046-.114.046-.115.044-.118.044-.12.043-.122.043-.124.042-.126.041-.128.04-.13.039-.132.039-.134.038-.135.037-.138.036-.139.036-.142.034-.143.034-.144.033-.147.032-.148.032-.15.03-.151.03-.153.028-.154.028-.156.027-.158.026-.159.024-.161.024-.162.023-.163.023-.165.021-.166.02-.167.019-.169.018-.169.017-.171.016-.173.015-.173.014-.175.013-.175.012-.177.01-.178.01-.179.009-.179.007-.181.006-.182.006-.182.004-.184.003-.184.001-.185.001-.185-.001-.184-.001-.184-.003-.182-.004-.182-.006-.181-.006-.179-.007-.179-.009-.178-.01-.176-.01-.176-.012-.175-.013-.173-.014-.172-.015-.171-.016-.17-.017-.169-.018-.167-.019-.166-.02-.165-.021-.163-.023-.162-.023-.161-.024-.159-.024-.157-.026-.156-.027-.155-.028-.153-.028-.151-.03-.15-.03-.148-.032-.146-.032-.145-.033-.143-.034-.141-.034-.14-.036-.137-.036-.136-.037-.134-.038-.132-.039-.13-.039-.128-.041-.126-.041-.124-.041-.122-.043-.12-.043-.117-.044-.116-.044-.113-.046-.112-.046-.109-.046-.106-.048-.105-.048-.102-.048-.1-.05-.097-.049-.095-.051-.093-.051-.09-.052-.087-.052-.085-.053-.083-.053-.08-.054-.077-.054v4.153zm8.74-8.179l-.257.004-.254.005-.25.008-.247.011-.244.012-.241.014-.237.016-.233.018-.231.021-.226.022-.224.023-.22.026-.216.027-.212.028-.21.031-.205.032-.202.033-.198.034-.194.036-.191.038-.187.038-.183.04-.179.041-.175.042-.172.043-.168.043-.163.045-.16.046-.155.046-.152.048-.148.048-.143.048-.139.049-.136.05-.131.05-.126.051-.123.051-.118.051-.114.052-.11.052-.106.052-.101.052-.096.052-.092.052-.088.052-.083.052-.079.052-.074.051-.07.052-.065.051-.06.05-.056.05-.051.05-.023.025-.023.024-.021.024-.02.025-.019.024-.018.024-.017.023-.015.024-.014.023-.013.023-.012.023-.01.023-.01.022-.008.022-.006.023-.006.021-.004.022-.004.021-.001.021-.001.021.001.021.001.021.004.021.004.022.006.021.006.023.008.022.01.022.01.023.012.023.013.023.014.023.015.024.017.023.018.024.019.024.02.025.021.024.023.024.023.025.051.05.056.05.06.05.065.051.07.052.074.051.079.052.083.052.088.052.092.052.096.052.101.052.106.052.11.052.114.052.118.051.123.051.126.051.131.05.136.05.139.049.143.048.148.048.152.048.155.046.16.046.163.045.168.043.172.043.175.042.179.041.183.04.187.038.191.038.194.036.198.034.202.033.205.032.21.031.212.028.216.027.22.026.224.023.226.022.231.021.233.018.237.016.241.014.244.012.247.011.25.008.254.005.257.004.26.001.26-.001.257-.004.254-.005.25-.008.247-.011.244-.012.241-.014.237-.016.233-.018.231-.021.226-.022.224-.023.22-.026.216-.027.212-.028.21-.031.205-.032.202-.033.198-.034.194-.036.191-.038.187-.038.183-.04.179-.041.175-.042.172-.043.168-.043.163-.045.16-.046.155-.046.152-.048.148-.048.143-.048.139-.049.136-.05.131-.05.126-.051.123-.051.118-.051.114-.052.11-.052.106-.052.101-.052.096-.052.092-.052.088-.052.083-.052.079-.052.074-.051.07-.052.065-.051.06-.05.056-.05.051-.05.023-.025.023-.024.021-.024.02-.025.019-.024.018-.024.017-.023.015-.024.014-.023.013-.023.012-.023.01-.023.01-.022.008-.022.006-.023.006-.021.004-.022.004-.021.001-.021.001-.021-.001-.021-.001-.021-.004-.021-.004-.022-.006-.021-.006-.023-.008-.022-.01-.022-.01-.023-.012-.023-.013-.023-.014-.023-.015-.024-.017-.023-.018-.024-.019-.024-.02-.025-.021-.024-.023-.024-.023-.025-.051-.05-.056-.05-.06-.05-.065-.051-.07-.052-.074-.051-.079-.052-.083-.052-.088-.052-.092-.052-.096-.052-.101-.052-.106-.052-.11-.052-.114-.052-.118-.051-.123-.051-.126-.051-.131-.05-.136-.05-.139-.049-.143-.048-.148-.048-.152-.048-.155-.046-.16-.046-.163-.045-.168-.043-.172-.043-.175-.042-.179-.041-.183-.04-.187-.038-.191-.038-.194-.036-.198-.034-.202-.033-.205-.032-.21-.031-.212-.028-.216-.027-.22-.026-.224-.023-.226-.022-.231-.021-.233-.018-.237-.016-.241-.014-.244-.012-.247-.011-.25-.008-.254-.005-.257-.004-.26-.001-.26.001z" transform="scale(.5)"></path></symbol></defs><defs><symbol height="24" width="24" id="clock"><path d="M12 2c5.514 0 10 4.486 10 10s-4.486 10-10 10-10-4.486-10-10 4.486-10 10-10zm0-2c-6.627 0-12 5.373-12 12s5.373 12 12 12 12-5.373 12-12-5.373-12-12-12zm5.848 12.459c.202.038.202.333.001.372-1.907.361-6.045 1.111-6.547 1.111-.719 0-1.301-.582-1.301-1.301 0-.512.77-5.447 1.125-7.445.034-.192.312-.181.343.014l.985 6.238 5.394 1.011z" transform="scale(.5)"></path></symbol></defs><defs><marker orient="auto" markerHeight="12" markerWidth="12" markerUnits="userSpaceOnUse" refY="5" refX="7.9" id="arrowhead"><path d="M 0 0 L 10 5 L 0 10 z"></path></marker></defs><defs><marker refY="4.5" refX="4" orient="auto" markerHeight="8" markerWidth="15" id="crosshead"><path d="M 1,2 L 6,7 M 6,2 L 1,7" stroke-width="1pt" style="stroke-dasharray: 0px, 0px;" stroke="#000000" fill="none"></path></marker></defs><defs><marker orient="auto" markerHeight="28" markerWidth="20" refY="7" refX="15.5" id="filled-head"><path d="M 18,7 L9,13 L14,7 L9,1 Z"></path></marker></defs><defs><marker orient="auto" markerHeight="40" markerWidth="60" refY="15" refX="15" id="sequencenumber"><circle r="6" cy="15" cx="15"></circle></marker></defs><g><line class="loopLine" y2="780" x2="406" y1="780" x1="64"></line><line class="loopLine" y2="970" x2="406" y1="780" x1="406"></line><line class="loopLine" y2="970" x2="406" y1="970" x1="64"></line><line class="loopLine" y2="970" x2="64" y1="780" x1="64"></line><line style="stroke-dasharray: 3px, 3px;" class="loopLine" y2="880" x2="406" y1="880" x1="64"></line><polygon class="labelBox" points="64,780 114,780 114,793 105.6,800 64,800"></polygon><text class="labelText" style="font-size: 16px; font-weight: 400;" alignment-baseline="middle" dominant-baseline="middle" text-anchor="middle" y="793" x="89">alt</text><text class="loopText" style="font-size: 16px; font-weight: 400;" text-anchor="middle" y="798" x="260"><tspan x="260">[Write to new-users successful]</tspan></text><text class="loopText" style="font-size: 16px; font-weight: 400;" text-anchor="middle" y="898" x="235">[Write to new-users failed]</text></g><g><line class="loopLine" y2="635" x2="1032" y1="635" x1="54"></line><line class="loopLine" y2="1075" x2="1032" y1="635" x1="1032"></line><line class="loopLine" y2="1075" x2="1032" y1="1075" x1="54"></line><line class="loopLine" y2="1075" x2="54" y1="635" x1="54"></line><line style="stroke-dasharray: 3px, 3px;" class="loopLine" y2="985" x2="1032" y1="985" x1="54"></line><polygon class="labelBox" points="54,635 104,635 104,648 95.6,655 54,655"></polygon><text class="labelText" style="font-size: 16px; font-weight: 400;" alignment-baseline="middle" dominant-baseline="middle" text-anchor="middle" y="648" x="79">alt</text><text class="loopText" style="font-size: 16px; font-weight: 400;" text-anchor="middle" y="653" x="568"><tspan x="568">[Write to users successful]</tspan></text><text class="loopText" style="font-size: 16px; font-weight: 400;" text-anchor="middle" y="1003" x="543">[Write to users failed]</text></g><g><line class="loopLine" y2="205" x2="1042" y1="205" x1="44"></line><line class="loopLine" y2="1085" x2="1042" y1="205" x1="1042"></line><line class="loopLine" y2="1085" x2="1042" y1="1085" x1="44"></line><line class="loopLine" y2="1085" x2="44" y1="205" x1="44"></line><line style="stroke-dasharray: 3px, 3px;" class="loopLine" y2="305" x2="1042" y1="305" x1="44"></line><polygon class="labelBox" points="44,205 94,205 94,218 85.6,225 44,225"></polygon><text class="labelText" style="font-size: 16px; font-weight: 400;" alignment-baseline="middle" dominant-baseline="middle" text-anchor="middle" y="218" x="69">alt</text><text class="loopText" style="font-size: 16px; font-weight: 400;" text-anchor="middle" y="223" x="568"><tspan x="568">[Input invalid]</tspan></text><text class="loopText" style="font-size: 16px; font-weight: 400;" text-anchor="middle" y="323" x="543">[Input valid]</text></g><g><line class="loopLine" y2="1565" x2="1738" y1="1565" x1="1262"></line><line class="loopLine" y2="1945" x2="1738" y1="1565" x1="1738"></line><line class="loopLine" y2="1945" x2="1738" y1="1945" x1="1262"></line><line class="loopLine" y2="1945" x2="1262" y1="1565" x1="1262"></line><line style="stroke-dasharray: 3px, 3px;" class="loopLine" y2="1745" x2="1738" y1="1745" x1="1262"></line><polygon class="labelBox" points="1262,1565 1312,1565 1312,1578 1303.6,1585 1262,1585"></polygon><text class="labelText" style="font-size: 16px; font-weight: 400;" alignment-baseline="middle" dominant-baseline="middle" text-anchor="middle" y="1578" x="1287">alt</text><text class="loopText" style="font-size: 16px; font-weight: 400;" text-anchor="middle" y="1583" x="1525"><tspan x="1525">[NFC write successful]</tspan></text><text class="loopText" style="font-size: 16px; font-weight: 400;" text-anchor="middle" y="1763" x="1500">[NFC write failed]</text></g><g><line class="loopLine" y2="1420" x2="1748" y1="1420" x1="1010"></line><line class="loopLine" y2="2160" x2="1748" y1="1420" x1="1748"></line><line class="loopLine" y2="2160" x2="1748" y1="2160" x1="1010"></line><line class="loopLine" y2="2160" x2="1010" y1="1420" x1="1010"></line><line style="stroke-dasharray: 3px, 3px;" class="loopLine" y2="1960" x2="1748" y1="1960" x1="1010"></line><polygon class="labelBox" points="1010,1420 1060,1420 1060,1433 1051.6,1440 1010,1440"></polygon><text class="labelText" style="font-size: 16px; font-weight: 400;" alignment-baseline="middle" dominant-baseline="middle" text-anchor="middle" y="1433" x="1035">alt</text><text class="loopText" style="font-size: 16px; font-weight: 400;" text-anchor="middle" y="1438" x="1404"><tspan x="1404">[Read successful]</tspan></text><text class="loopText" style="font-size: 16px; font-weight: 400;" text-anchor="middle" y="1978" x="1379">[Read failed]</text></g><g><line class="loopLine" y2="1275" x2="1758" y1="1275" x1="1000"></line><line class="loopLine" y2="2375" x2="1758" y1="1275" x1="1758"></line><line class="loopLine" y2="2375" x2="1758" y1="2375" x1="1000"></line><line class="loopLine" y2="2375" x2="1000" y1="1275" x1="1000"></line><line style="stroke-dasharray: 3px, 3px;" class="loopLine" y2="2175" x2="1758" y1="2175" x1="1000"></line><polygon class="labelBox" points="1000,1275 1050,1275 1050,1288 1041.6,1295 1000,1295"></polygon><text class="labelText" style="font-size: 16px; font-weight: 400;" alignment-baseline="middle" dominant-baseline="middle" text-anchor="middle" y="1288" x="1025">alt</text><text class="loopText" style="font-size: 16px; font-weight: 400;" text-anchor="middle" y="1293" x="1404"><tspan x="1404">[NFC tag is empty]</tspan></text><text class="loopText" style="font-size: 16px; font-weight: 400;" text-anchor="middle" y="2193" x="1379">[NFC tag is not empty]</text></g><g><rect class="note" ry="0" rx="0" height="60" width="316" stroke="#666" fill="#EDF2AE" y="2385" x="1569"></rect><text dy="1em" class="noteText" style="font-size: 16px; font-weight: 400;" alignment-baseline="middle" dominant-baseline="middle" text-anchor="middle" y="2390" x="1727"><tspan x="1727">NFC tag now contains</tspan></text><text dy="1em" class="noteText" style="font-size: 16px; font-weight: 400;" alignment-baseline="middle" dominant-baseline="middle" text-anchor="middle" y="2410" x="1727"><tspan x="1727">UUID and hashed user_id (if successful)</tspan></text></g><text dy="1em" class="messageText" style="font-size: 16px; font-weight: 400;" alignment-baseline="middle" dominant-baseline="middle" text-anchor="middle" y="80" x="234">Submit firstname, lastname, email</text><line marker-end="url(#arrowhead)" style="fill: none;" stroke="none" stroke-width="2" class="messageLine0" y2="115" x2="391" y1="115" x1="76"></line><text dy="1em" class="messageText" style="font-size: 16px; font-weight: 400;" alignment-baseline="middle" dominant-baseline="middle" text-anchor="middle" y="130" x="396">Validate input</text><path marker-end="url(#arrowhead)" style="fill: none;" stroke="none" stroke-width="2" class="messageLine0" d="M 396,165 C 456,155 456,195 396,185"></path><text dy="1em" class="messageText" style="font-size: 16px; font-weight: 400;" alignment-baseline="middle" dominant-baseline="middle" text-anchor="middle" y="255" x="237">Error: Invalid input</text><line marker-end="url(#arrowhead)" stroke="none" stroke-width="2" class="messageLine1" style="stroke-dasharray: 3px, 3px; fill: none;" y2="290" x2="79" y1="290" x1="394"></line><text dy="1em" class="messageText" style="font-size: 16px; font-weight: 400;" alignment-baseline="middle" dominant-baseline="middle" text-anchor="middle" y="350" x="396">Generate UUID</text><path marker-end="url(#arrowhead)" style="fill: none;" stroke="none" stroke-width="2" class="messageLine0" d="M 396,385 C 456,375 456,415 396,405"></path><text dy="1em" class="messageText" style="font-size: 16px; font-weight: 400;" alignment-baseline="middle" dominant-baseline="middle" text-anchor="middle" y="430" x="396">Generate userid from hashed UUID</text><path marker-end="url(#arrowhead)" style="fill: none;" stroke="none" stroke-width="2" class="messageLine0" d="M 396,465 C 456,455 456,495 396,485"></path><text dy="1em" class="messageText" style="font-size: 16px; font-weight: 400;" alignment-baseline="middle" dominant-baseline="middle" text-anchor="middle" y="510" x="396">Get current timestamp for creation-date</text><path marker-end="url(#arrowhead)" style="fill: none;" stroke="none" stroke-width="2" class="messageLine0" d="M 396,545 C 456,535 456,575 396,565"></path><text dy="1em" class="messageText" style="font-size: 16px; font-weight: 400;" alignment-baseline="middle" dominant-baseline="middle" text-anchor="middle" y="590" x="707">Write to 'users' collection (firstname, lastname, email, userid, creation-date)</text><line marker-end="url(#arrowhead)" style="fill: none;" stroke="none" stroke-width="2" class="messageLine0" y2="625" x2="1017" y1="625" x1="396"></line><text dy="1em" class="messageText" style="font-size: 16px; font-weight: 400;" alignment-baseline="middle" dominant-baseline="middle" text-anchor="middle" y="685" x="710">Return _id of written 'users' document</text><line marker-end="url(#arrowhead)" stroke="none" stroke-width="2" class="messageLine1" style="stroke-dasharray: 3px, 3px; fill: none;" y2="720" x2="399" y1="720" x1="1020"></line><text dy="1em" class="messageText" style="font-size: 16px; font-weight: 400;" alignment-baseline="middle" dominant-baseline="middle" text-anchor="middle" y="735" x="707">Write to 'new-users' collection (_id as user_id, UUID, creation-date)</text><line marker-end="url(#arrowhead)" style="fill: none;" stroke="none" stroke-width="2" class="messageLine0" y2="770" x2="1017" y1="770" x1="396"></line><text dy="1em" class="messageText" style="font-size: 16px; font-weight: 400;" alignment-baseline="middle" dominant-baseline="middle" text-anchor="middle" y="830" x="237">Success: User created</text><line marker-end="url(#arrowhead)" stroke="none" stroke-width="2" class="messageLine1" style="stroke-dasharray: 3px, 3px; fill: none;" y2="865" x2="79" y1="865" x1="394"></line><text dy="1em" class="messageText" style="font-size: 16px; font-weight: 400;" alignment-baseline="middle" dominant-baseline="middle" text-anchor="middle" y="925" x="237">Error: User creation failed</text><line marker-end="url(#arrowhead)" stroke="none" stroke-width="2" class="messageLine1" style="stroke-dasharray: 3px, 3px; fill: none;" y2="960" x2="79" y1="960" x1="394"></line><text dy="1em" class="messageText" style="font-size: 16px; font-weight: 400;" alignment-baseline="middle" dominant-baseline="middle" text-anchor="middle" y="1030" x="237">Error: User creation failed</text><line marker-end="url(#arrowhead)" stroke="none" stroke-width="2" class="messageLine1" style="stroke-dasharray: 3px, 3px; fill: none;" y2="1065" x2="79" y1="1065" x1="394"></line><text dy="1em" class="messageText" style="font-size: 16px; font-weight: 400;" alignment-baseline="middle" dominant-baseline="middle" text-anchor="middle" y="1100" x="709">Physically approach with NFC tag</text><line marker-end="url(#arrowhead)" style="fill: none;" stroke="none" stroke-width="2" class="messageLine0" y2="1135" x2="1342" y1="1135" x1="76"></line><text dy="1em" class="messageText" style="font-size: 16px; font-weight: 400;" alignment-baseline="middle" dominant-baseline="middle" text-anchor="middle" y="1150" x="1347">Detect button press</text><path marker-end="url(#arrowhead)" style="fill: none;" stroke="none" stroke-width="2" class="messageLine0" d="M 1347,1185 C 1407,1175 1407,1215 1347,1205"></path><text dy="1em" class="messageText" style="font-size: 16px; font-weight: 400;" alignment-baseline="middle" dominant-baseline="middle" text-anchor="middle" y="1230" x="1535">Check if NFC tag is empty</text><line marker-end="url(#arrowhead)" style="fill: none;" stroke="none" stroke-width="2" class="messageLine0" y2="1265" x2="1723" y1="1265" x1="1347"></line><text dy="1em" class="messageText" style="font-size: 16px; font-weight: 400;" alignment-baseline="middle" dominant-baseline="middle" text-anchor="middle" y="1325" x="1538">Tag is empty</text><line marker-end="url(#arrowhead)" stroke="none" stroke-width="2" class="messageLine1" style="stroke-dasharray: 3px, 3px; fill: none;" y2="1360" x2="1350" y1="1360" x1="1726"></line><text dy="1em" class="messageText" style="font-size: 16px; font-weight: 400;" alignment-baseline="middle" dominant-baseline="middle" text-anchor="middle" y="1375" x="1185">Read latest entry from 'new-users'</text><line marker-end="url(#arrowhead)" style="fill: none;" stroke="none" stroke-width="2" class="messageLine0" y2="1410" x2="1025" y1="1410" x1="1345"></line><text dy="1em" class="messageText" style="font-size: 16px; font-weight: 400;" alignment-baseline="middle" dominant-baseline="middle" text-anchor="middle" y="1470" x="1182">Return latest new-user entry</text><line marker-end="url(#arrowhead)" stroke="none" stroke-width="2" class="messageLine1" style="stroke-dasharray: 3px, 3px; fill: none;" y2="1505" x2="1342" y1="1505" x1="1022"></line><text dy="1em" class="messageText" style="font-size: 16px; font-weight: 400;" alignment-baseline="middle" dominant-baseline="middle" text-anchor="middle" y="1520" x="1535">Attempt to write UUID and hashed user_id</text><line marker-end="url(#arrowhead)" style="fill: none;" stroke="none" stroke-width="2" class="messageLine0" y2="1555" x2="1723" y1="1555" x1="1347"></line><text dy="1em" class="messageText" style="font-size: 16px; font-weight: 400;" alignment-baseline="middle" dominant-baseline="middle" text-anchor="middle" y="1615" x="1538">Write confirmed</text><line marker-end="url(#arrowhead)" stroke="none" stroke-width="2" class="messageLine1" style="stroke-dasharray: 3px, 3px; fill: none;" y2="1650" x2="1350" y1="1650" x1="1726"></line><text dy="1em" class="messageText" style="font-size: 16px; font-weight: 400;" alignment-baseline="middle" dominant-baseline="middle" text-anchor="middle" y="1665" x="1347">Light success LED</text><path marker-end="url(#arrowhead)" style="fill: none;" stroke="none" stroke-width="2" class="messageLine0" d="M 1347,1700 C 1407,1690 1407,1730 1347,1720"></path><text dy="1em" class="messageText" style="font-size: 16px; font-weight: 400;" alignment-baseline="middle" dominant-baseline="middle" text-anchor="middle" y="1790" x="1538">Write failed</text><line marker-end="url(#arrowhead)" stroke="none" stroke-width="2" class="messageLine1" style="stroke-dasharray: 3px, 3px; fill: none;" y2="1825" x2="1350" y1="1825" x1="1726"></line><text dy="1em" class="messageText" style="font-size: 16px; font-weight: 400;" alignment-baseline="middle" dominant-baseline="middle" text-anchor="middle" y="1840" x="1347">Light error LED</text><path marker-end="url(#arrowhead)" style="fill: none;" stroke="none" stroke-width="2" class="messageLine0" d="M 1347,1875 C 1407,1865 1407,1905 1347,1895"></path><text dy="1em" class="messageText" style="font-size: 16px; font-weight: 400;" alignment-baseline="middle" dominant-baseline="middle" text-anchor="middle" y="2005" x="1182">Error: Read failed</text><line marker-end="url(#arrowhead)" stroke="none" stroke-width="2" class="messageLine1" style="stroke-dasharray: 3px, 3px; fill: none;" y2="2040" x2="1342" y1="2040" x1="1022"></line><text dy="1em" class="messageText" style="font-size: 16px; font-weight: 400;" alignment-baseline="middle" dominant-baseline="middle" text-anchor="middle" y="2055" x="1347">Light error LED</text><path marker-end="url(#arrowhead)" style="fill: none;" stroke="none" stroke-width="2" class="messageLine0" d="M 1347,2090 C 1407,2080 1407,2120 1347,2110"></path><text dy="1em" class="messageText" style="font-size: 16px; font-weight: 400;" alignment-baseline="middle" dominant-baseline="middle" text-anchor="middle" y="2220" x="1538">Tag is not empty</text><line marker-end="url(#arrowhead)" stroke="none" stroke-width="2" class="messageLine1" style="stroke-dasharray: 3px, 3px; fill: none;" y2="2255" x2="1350" y1="2255" x1="1726"></line><text dy="1em" class="messageText" style="font-size: 16px; font-weight: 400;" alignment-baseline="middle" dominant-baseline="middle" text-anchor="middle" y="2270" x="1347">Light error LED</text><path marker-end="url(#arrowhead)" style="fill: none;" stroke="none" stroke-width="2" class="messageLine0" d="M 1347,2305 C 1407,2295 1407,2335 1347,2325"></path></svg>